<svg width="187" height="58" viewBox="0 0 187 58" fill="none" xmlns="http://www.w3.org/2000/svg">
<path d="M1.992 21.2H5.88V38H1.992V21.2ZM17.551 24.896C19.151 24.896 20.439 25.376 21.415 26.336C22.407 27.296 22.903 28.72 22.903 30.608V38H19.159V31.184C19.159 30.16 18.935 29.4 18.487 28.904C18.039 28.392 17.391 28.136 16.543 28.136C15.599 28.136 14.847 28.432 14.287 29.024C13.727 29.6 13.447 30.464 13.447 31.616V38H9.703V25.088H13.279V26.6C13.775 26.056 14.391 25.64 15.127 25.352C15.863 25.048 16.671 24.896 17.551 24.896ZM39.6894 20.192V38H36.1134V36.512C35.1854 37.632 33.8414 38.192 32.0814 38.192C30.8654 38.192 29.7614 37.92 28.7694 37.376C27.7934 36.832 27.0254 36.056 26.4654 35.048C25.9054 34.04 25.6254 32.872 25.6254 31.544C25.6254 30.216 25.9054 29.048 26.4654 28.04C27.0254 27.032 27.7934 26.256 28.7694 25.712C29.7614 25.168 30.8654 24.896 32.0814 24.896C33.7294 24.896 35.0174 25.416 35.9454 26.456V20.192H39.6894ZM32.7294 35.12C33.6734 35.12 34.4574 34.8 35.0814 34.16C35.7054 33.504 36.0174 32.632 36.0174 31.544C36.0174 30.456 35.7054 29.592 35.0814 28.952C34.4574 28.296 33.6734 27.968 32.7294 27.968C31.7694 27.968 30.9774 28.296 30.3534 28.952C29.7294 29.592 29.4174 30.456 29.4174 31.544C29.4174 32.632 29.7294 33.504 30.3534 34.16C30.9774 34.8 31.7694 35.12 32.7294 35.12ZM43.2546 25.088H46.9986V38H43.2546V25.088ZM45.1266 23.288C44.4386 23.288 43.8786 23.088 43.4466 22.688C43.0146 22.288 42.7986 21.792 42.7986 21.2C42.7986 20.608 43.0146 20.112 43.4466 19.712C43.8786 19.312 44.4386 19.112 45.1266 19.112C45.8146 19.112 46.3746 19.304 46.8066 19.688C47.2386 20.072 47.4546 20.552 47.4546 21.128C47.4546 21.752 47.2386 22.272 46.8066 22.688C46.3746 23.088 45.8146 23.288 45.1266 23.288ZM56.8133 38.192C55.4373 38.192 54.1973 37.912 53.0933 37.352C52.0053 36.776 51.1493 35.984 50.5253 34.976C49.9173 33.968 49.6133 32.824 49.6133 31.544C49.6133 30.264 49.9173 29.12 50.5253 28.112C51.1493 27.104 52.0053 26.32 53.0933 25.76C54.1973 25.184 55.4373 24.896 56.8133 24.896C58.1733 24.896 59.3573 25.184 60.3653 25.76C61.3893 26.32 62.1333 27.128 62.5973 28.184L59.6933 29.744C59.0213 28.56 58.0533 27.968 56.7893 27.968C55.8133 27.968 55.0053 28.288 54.3653 28.928C53.7253 29.568 53.4053 30.44 53.4053 31.544C53.4053 32.648 53.7253 33.52 54.3653 34.16C55.0053 34.8 55.8133 35.12 56.7893 35.12C58.0693 35.12 59.0373 34.528 59.6933 33.344L62.5973 34.928C62.1333 35.952 61.3893 36.752 60.3653 37.328C59.3573 37.904 58.1733 38.192 56.8133 38.192ZM70.8329 38.192C69.4729 38.192 68.2489 37.912 67.1609 37.352C66.0889 36.776 65.2489 35.984 64.6409 34.976C64.0329 33.968 63.7289 32.824 63.7289 31.544C63.7289 30.264 64.0329 29.12 64.6409 28.112C65.2489 27.104 66.0889 26.32 67.1609 25.76C68.2489 25.184 69.4729 24.896 70.8329 24.896C72.1929 24.896 73.4089 25.184 74.4809 25.76C75.5529 26.32 76.3929 27.104 77.0009 28.112C77.6089 29.12 77.9129 30.264 77.9129 31.544C77.9129 32.824 77.6089 33.968 77.0009 34.976C76.3929 35.984 75.5529 36.776 74.4809 37.352C73.4089 37.912 72.1929 38.192 70.8329 38.192ZM70.8329 35.12C71.7929 35.12 72.5769 34.8 73.1849 34.16C73.8089 33.504 74.1209 32.632 74.1209 31.544C74.1209 30.456 73.8089 29.592 73.1849 28.952C72.5769 28.296 71.7929 27.968 70.8329 27.968C69.8729 27.968 69.0809 28.296 68.4569 28.952C67.8329 29.592 67.5209 30.456 67.5209 31.544C67.5209 32.632 67.8329 33.504 68.4569 34.16C69.0809 34.8 69.8729 35.12 70.8329 35.12ZM84.0915 26.792C84.5395 26.168 85.1395 25.696 85.8915 25.376C86.6595 25.056 87.5395 24.896 88.5315 24.896V28.352C88.1155 28.32 87.8355 28.304 87.6915 28.304C86.6195 28.304 85.7795 28.608 85.1715 29.216C84.5635 29.808 84.2595 30.704 84.2595 31.904V38H80.5155V25.088H84.0915V26.792ZM98.4897 24.896C99.6897 24.896 100.778 25.176 101.754 25.736C102.746 26.28 103.522 27.056 104.082 28.064C104.642 29.056 104.922 30.216 104.922 31.544C104.922 32.872 104.642 34.04 104.082 35.048C103.522 36.04 102.746 36.816 101.754 37.376C100.778 37.92 99.6897 38.192 98.4897 38.192C96.8417 38.192 95.5457 37.672 94.6017 36.632V42.656H90.8577V25.088H94.4337V26.576C95.3617 25.456 96.7137 24.896 98.4897 24.896ZM97.8417 35.12C98.8017 35.12 99.5857 34.8 100.194 34.16C100.818 33.504 101.13 32.632 101.13 31.544C101.13 30.456 100.818 29.592 100.194 28.952C99.5857 28.296 98.8017 27.968 97.8417 27.968C96.8817 27.968 96.0897 28.296 95.4657 28.952C94.8577 29.592 94.5537 30.456 94.5537 31.544C94.5537 32.632 94.8577 33.504 95.4657 34.16C96.0897 34.8 96.8817 35.12 97.8417 35.12Z" fill="#252B42"/>
</svg>
